{
  "accessors": [
    {
      "bufferView": 2,
      "componentType": 5126,
      "count": 65532,
      "max": [
        5.5985198020935059,
        -5.4888100624084473,
        4.0638279914855957
      ],
      "min": [
        -3.7778689861297607,
        -17.903709411621094,
        -4.3675909042358398
      ],
      "type": "VEC3"
    },
    {
      "bufferView": 2,
      "byteOffset": 786384,
      "componentType": 5126,
      "count": 65532,
      "max": [
        0.99997574090957642,
        0.99983274936676025,
        0.9999995231628418
      ],
      "min": [
        -0.99995750188827515,
        -0.99996685981750488,
        -0.99998486042022705
      ],
      "type": "VEC3"
    },
    {
      "bufferView": 1,
      "componentType": 5126,
      "count": 65532,
      "max": [
        0.99950802326202393,
        0.99989199638366699
      ],
      "min": [
        0.00011300000187475234,
        0.00027099999715574086
      ],
      "type": "VEC2"
    },
    {
      "bufferView": 0,
      "componentType": 5125,
      "count": 293769,
      "max": [
        65531
      ],
      "min": [
        0
      ],
      "type": "SCALAR"
    },
    {
      "bufferView": 2,
      "byteOffset": 1572768,
      "componentType": 5126,
      "count": 65532,
      "max": [
        5.6624579429626465,
        -5.3673410415649414,
        4.1280908584594727
      ],
      "min": [
        -3.7778689861297607,
        -17.920114517211914,
        -4.2881860733032227
      ],
      "type": "VEC3"
    },
    {
      "bufferView": 2,
      "byteOffset": 2359152,
      "componentType": 5126,
      "count": 65532,
      "max": [
        0.99995410442352295,
        0.99970364570617676,
        0.99999654293060303
      ],
      "min": [
        -0.99993109703063965,
        -0.99999761581420898,
        -0.99998700618743896
      ],
      "type": "VEC3"
    },
    {
      "bufferView": 1,
      "byteOffset": 524256,
      "componentType": 5126,
      "count": 65532,
      "max": [
        0.99977600574493408,
        0.99986898899078369
      ],
      "min": [
        0.0001340000017080456,
        0.00051500002155080438
      ],
      "type": "VEC2"
    },
    {
      "bufferView": 0,
      "byteOffset": 1175076,
      "componentType": 5125,
      "count": 284532,
      "max": [
        65531
      ],
      "min": [
        0
      ],
      "type": "SCALAR"
    },
    {
      "bufferView": 2,
      "byteOffset": 3145536,
      "componentType": 5126,
      "count": 65532,
      "max": [
        7.2811989784240723,
        -5.3718280792236328,
        4.1209969520568848
      ],
      "min": [
        -3.7719159126281738,
        -17.912334442138672,
        -4.512627124786377
      ],
      "type": "VEC3"
    },
    {
      "bufferView": 2,
      "byteOffset": 3931920,
      "componentType": 5126,
      "count": 65532,
      "max": [
        0.99997574090957642,
        0.99989014863967896,
        0.99995487928390503
      ],
      "min": [
        -0.99997913837432861,
        -0.99999076128005981,
        -0.99998700618743896
      ],
      "type": "VEC3"
    },
    {
      "bufferView": 1,
      "byteOffset": 1048512,
      "componentType": 5126,
      "count": 65532,
      "max": [
        0.99988400936126709,
        0.99988698959350586
      ],
      "min": [
        0.0001049999991664663,
        0.00022899999748915434
      ],
      "type": "VEC2"
    },
    {
      "bufferView": 0,
      "byteOffset": 2313204,
      "componentType": 5125,
      "count": 255486,
      "max": [
        65531
      ],
      "min": [
        0
      ],
      "type": "SCALAR"
    },
    {
      "bufferView": 2,
      "byteOffset": 4718304,
      "componentType": 5126,
      "count": 51665,
      "max": [
        6.7469820976257324,
        -5.3673968315124512,
        4.1367478370666504
      ],
      "min": [
        -3.771414041519165,
        -17.920114517211914,
        -4.512627124786377
      ],
      "type": "VEC3"
    },
    {
      "bufferView": 2,
      "byteOffset": 5338284,
      "componentType": 5126,
      "count": 51665,
      "max": [
        0.99999773502349854,
        0.99989014863967896,
        0.99994564056396484
      ],
      "min": [
        -0.99996411800384521,
        -0.99998438358306885,
        -0.99995362758636475
      ],
      "type": "VEC3"
    },
    {
      "bufferView": 1,
      "byteOffset": 1572768,
      "componentType": 5126,
      "count": 51665,
      "max": [
        0.99988597631454468,
        0.99987399578094482
      ],
      "min": [
        0.0002010000025620684,
        0.00012199999764561653
      ],
      "type": "VEC2"
    },
    {
      "bufferView": 0,
      "byteOffset": 3335148,
      "componentType": 5125,
      "count": 120678,
      "max": [
        51664
      ],
      "min": [
        0
      ],
      "type": "SCALAR"
    }
  ],
  "asset": {
    "extras": {
      "author": "Geoffrey Marchal (https://sketchfab.com/geoffreymarchal)",
      "license": "CC-BY-NC-4.0 (http://creativecommons.org/licenses/by-nc/4.0/)",
      "source": "https://sketchfab.com/3d-models/babylon-fall-d67d56edcc784cca804045bd2e1fe6f0",
      "title": "Babylon Fall"
    },
    "generator": "Sketchfab-10.30.0",
    "version": "2.0"
  },
  "bufferViews": [
    {
      "buffer": 0,
      "byteLength": 3817860,
      "byteOffset": 0,
      "name": "floatBufferViews",
      "target": 34963
    },
    {
      "buffer": 0,
      "byteLength": 1986088,
      "byteOffset": 3817860,
      "byteStride": 8,
      "name": "floatBufferViews",
      "target": 34962
    },
    {
      "buffer": 0,
      "byteLength": 5958264,
      "byteOffset": 5803948,
      "byteStride": 12,
      "name": "floatBufferViews",
      "target": 34962
    }
  ],
  "buffers": [
    {
      "byteLength": 11762212,
      "uri": "scene.bin"
    }
  ],
  "images": [
    {
      "uri": "textures/Babylon_fall_-_CleanUp_-_LowPoly_baseColor.jpeg"
    }
  ],
  "materials": [
    {
      "doubleSided": true,
      "name": "Babylon_fall_-_CleanUp_-_LowPoly",
      "pbrMetallicRoughness": {
        "baseColorFactor": [
          1,
          1,
          1,
          1
        ],
        "baseColorTexture": {
          "index": 0,
          "texCoord": 0
        },
        "metallicFactor": 0,
        "roughnessFactor": 1
      }
    }
  ],
  "meshes": [
    {
      "primitives": [
        {
          "attributes": {
            "NORMAL": 1,
            "POSITION": 0,
            "TEXCOORD_0": 2
          },
          "indices": 3,
          "material": 0,
          "mode": 4
        }
      ]
    },
    {
      "primitives": [
        {
          "attributes": {
            "NORMAL": 5,
            "POSITION": 4,
            "TEXCOORD_0": 6
          },
          "indices": 7,
          "material": 0,
          "mode": 4
        }
      ]
    },
    {
      "primitives": [
        {
          "attributes": {
            "NORMAL": 9,
            "POSITION": 8,
            "TEXCOORD_0": 10
          },
          "indices": 11,
          "material": 0,
          "mode": 4
        }
      ]
    },
    {
      "primitives": [
        {
          "attributes": {
            "NORMAL": 13,
            "POSITION": 12,
            "TEXCOORD_0": 14
          },
          "indices": 15,
          "material": 0,
          "mode": 4
        }
      ]
    }
  ],
  "nodes": [
    {
      "children": [
        1
      ],
      "name": "RootNode (gltf orientation matrix)",
      "rotation": [
        -0.70710678118654746,
        -0,
        -0,
        0.70710678118654757
      ]
    },
    {
      "children": [
        2
      ],
      "matrix": [
        0.7667575478553772,
        0.640910804271698,
        -0.036279264837503433,
        0,
        -0.11363544315099716,
        0.079891443252563477,
        -0.99030518531799316,
        0,
        -0.63179886341094971,
        0.76344656944274902,
        0.13408754765987396,
        0,
        -1.0333095788955688,
        -11.692648887634277,
        -11.629997253417969,
        1
      ],
      "name": "RootNode (model correction matrix)"
    },
    {
      "children": [
        3,
        4,
        5,
        6
      ],
      "name": "Babylon fall - CleanUp - LowPoly.obj.cleaner.materialmerger.gles"
    },
    {
      "mesh": 0,
      "name": ""
    },
    {
      "mesh": 1,
      "name": ""
    },
    {
      "mesh": 2,
      "name": ""
    },
    {
      "mesh": 3,
      "name": ""
    }
  ],
  "samplers": [
    {
      "magFilter": 9729,
      "minFilter": 9987,
      "wrapS": 10497,
      "wrapT": 10497
    }
  ],
  "scene": 0,
  "scenes": [
    {
      "name": "OSG_Scene",
      "nodes": [
        0
      ]
    }
  ],
  "textures": [
    {
      "sampler": 0,
      "source": 0
    }
  ]
}

